#!OML:ASF H:\GeneralSubjects\Female5\Project 1\Capture day 1\Session 1\Female5.ASF
:FULLY-SPECIFIED
:DEGREES
381
root -12.3841 15.916 3.51133 367.426 -122.636 -357.99
lowerback 7.10597 1.6201 2.40492
upperback -10.0372 2.50343 3.45175
thorax -15.1954 0.960619 2.07035
lowerneck -15.3544 9.1778 13.8919
upperneck 27.1231 11.3028 -8.50618
head 12.9516 5.22214 -3.78604
rclavicle 2.88238e-014 4.13472e-014
rhumerus -17.573 -10.1857 -55.4267
rradius 117.158
rwrist -18.1957
rhand -50.1933 -38.4196
rfingers 7.12502
rthumb -22.7746 -67.0953
lclavicle 2.88238e-014 4.13472e-014
lhumerus -50.6045 -27.697 96.1053
lradius 62.6927
lwrist -6.00939
lhand -30.7807 36.616
lfingers 7.12502
lthumb -4.07141 -293.443
rfemur 3.7962 21.6485 30.4026
rtibia 1.92066
rfoot -21.3003 -14.8855
rtoes -15.017
lfemur -26.1128 -3.16204 -18.9923
ltibia 26.2949
lfoot -26.4118 -9.12299
ltoes -17.4295
382
root -12.4003 15.9207 3.51056 367.093 -122.029 -357.624
lowerback 7.6785 1.41721 2.3696
upperback -10.3703 2.26402 3.65627
thorax -15.9898 0.855798 2.38082
lowerneck -15.0164 9.01083 13.9067
upperneck 27.4369 11.1175 -8.59467
head 12.9921 5.12799 -3.87924
rclavicle 1.35174e-014 5.24792e-014
rhumerus -15.3702 -15.8974 -53.6061
rradius 119.695
rwrist -15.9912
rhand -52.7557 -40.3766
rfingers 7.12502
rthumb -25.2317 -68.7284
lclavicle 1.35174e-014 5.24792e-014
lhumerus -52.1566 -24.8405 95.7985
lradius 60.8501
lwrist -6.43125
lhand -30.206 35.0907
lfingers 7.12502
lthumb -3.51635 -294.959
rfemur 4.18068 21.6757 30.767
rtibia 1.58828
rfoot -21.7545 -15.3209
rtoes -13.3173
lfemur -26.7884 -4.03302 -18.9013
ltibia 27.4627
lfoot -26.2683 -9.21174
ltoes -18.2283
383
root -12.4488 15.9243 3.50411 366.476 -121.476 -356.977
lowerback 7.58321 1.32091 2.48581
upperback -10.4651 2.16071 3.90281
thorax -16.0536 0.806594 2.62389
lowerneck -14.9119 8.81938 13.8631
upperneck 27.7761 10.9039 -8.73592
head 13.0866 5.00404 -3.98258
rclavicle 4.05521e-014 -6.20208e-014
rhumerus -12.4463 -21.9564 -52.4511
rradius 121.778
rwrist -13.5605
rhand -54.6825 -42.3017
rfingers 7.12502
rthumb -27.0764 -70.3802
lclavicle 4.05521e-014 -6.20208e-014
lhumerus -53.0671 -22.3758 95.3498
lradius 58.9441
lwrist -7.01231
lhand -30.2122 32.8592
lfingers 7.12502
lthumb -3.52235 -297.19
rfemur 4.71738 21.5355 31.2194
rtibia 1.16385
rfoot -22.0442 -15.8475
rtoes -13.3059
lfemur -27.0865 -4.96115 -18.6574
ltibia 28.2097
lfoot -26.2836 -9.78553
ltoes -18.1702
384
root -12.4995 15.9279 3.49443 365.902 -120.755 -356.416
lowerback 7.3801 1.27489 2.48721
upperback -10.5341 2.10087 4.11203
thorax -16.0175 0.790099 2.87817
lowerneck -14.9758 8.59532 13.5608
upperneck 28.245 10.5923 -8.52711
head 13.2147 4.84884 -3.92008
rclavicle 6.75868e-015 -7.95139e-015
rhumerus -9.16839 -27.9861 -51.9712
rradius 123.578
rwrist -11.0066
rhand -56.2872 -44.4726
rfingers 7.12502
rthumb -28.6106 -72.3027
lclavicle 6.75868e-015 -7.95139e-015
lhumerus -53.7508 -20.4248 95.0161
lradius 57.1755
lwrist -7.16239
lhand -30.1016 31.9783
lfingers 7.12502
lthumb -3.41558 -298.069
rfemur 5.25682 21.2012 31.5906
rtibia 0.764541
rfoot -22.2446 -16.4327
rtoes -14.0542
lfemur -27.3372 -6.0091 -18.4501
ltibia 28.8285
lfoot -25.9719 -11.2949
ltoes -16.2225
385
root -12.5514 15.9305 3.48301 365.329 -119.874 -355.76
lowerback 7.14709 1.28147 2.4735
upperback -10.7078 2.10282 4.30175
thorax -16.0947 0.799451 3.11159
lowerneck -15.0872 8.29036 13.1027
upperneck 28.7571 10.1549 -8.17197
head 13.3361 4.63864 -3.7957
rclavicle -5.66536e-014 3.81667e-014
rhumerus -5.80596 -33.6001 -51.8198
rradius 125.135
rwrist -8.80198
rhand -58.3979 -46.3569
rfingers 7.12502
rthumb -30.6254 -73.8291
lclavicle -5.66536e-014 3.81667e-014
lhumerus -54.3003 -19.0114 94.7703
lradius 55.5013
lwrist -6.88213
lhand -29.6185 32.1239
lfingers 7.12502
lthumb -2.949 -297.917
rfemur 5.60997 20.7579 31.9471
rtibia 0.47969
rfoot -22.3265 -17.0625
rtoes -15.3083
lfemur -27.6583 -7.04949 -18.1899
ltibia 29.3542
lfoot -25.8266 -11.8145
ltoes -14.8508
386
root -12.6069 15.9303 3.46865 364.472 -118.82 -354.877
lowerback 6.91987 1.33791 2.55362
upperback -10.8647 2.18386 4.43212
thorax -16.1513 0.831417 3.20739
lowerneck -15.1792 7.87233 12.7648
upperneck 29.1289 9.58909 -8.05091
head 13.4045 4.35862 -3.80497
rclavicle 1.90833e-014 -7.31528e-014
rhumerus -2.15623 -38.8893 -52.2081
rradius 126.356
rwrist -6.95887
rhand -59.5024 -47.8811
rfingers 7.12502
rthumb -31.678 -75.1511
lclavicle 1.90833e-014 -7.31528e-014
lhumerus -54.58 -18.4301 94.6354
lradius 53.7085
lwrist -6.30152
lhand -29.0398 32.0894
lfingers 7.12502
lthumb -2.3901 -297.944
rfemur 6.11115 20.2158 32.4677
rtibia 0.162508
rfoot -22.4082 -17.7316
rtoes -16.3349
lfemur -27.7808 -8.01037 -17.8805
ltibia 29.6337
lfoot -25.5863 -11.8318
ltoes -13.149
387
root -12.6733 15.9291 3.45262 363.756 -117.573 -354.408
lowerback 6.75258 1.41865 2.43378
upperback -10.9731 2.27073 4.44769
thorax -16.1875 0.886866 3.27958
lowerneck -15.1997 7.34667 12.3791
upperneck 29.3768 8.90328 -7.98913
head 13.3922 4.0165 -3.84893
rclavicle -1.27222e-014 -4.29375e-014
rhumerus 2.14139 -43.9359 -53.434
rradius 127.412
rwrist -5.08772
rhand -59.5181 -54.2888
rfingers 7.12502
rthumb -31.6929 -81.5558
lclavicle -1.27222e-014 -4.29375e-014
lhumerus -54.7501 -18.4771 94.6526
lradius 51.9951
lwrist -6.00595
lhand -28.5049 31.6302
lfingers 7.12502
lthumb -1.87357 -298.398
rfemur 7.07344 19.4406 32.8291
rtibia -0.371686
rfoot -22.8849 -18.1212
rtoes -15.8377
lfemur -27.5061 -8.97807 -18.0204
ltibia 29.7051
lfoot -25.2664 -11.2911
ltoes -11.8321
388
root -12.7475 15.9294 3.4349 363.355 -116.209 -354.26
lowerback 6.60094 1.55981 2.14035
upperback -11.2024 2.40614 4.36961
thorax -16.3912 0.97759 3.33876
lowerneck -15.2434 6.69367 11.7968
upperneck 29.7858 8.03141 -7.76479
head 13.4133 3.5869 -3.82975
rclavicle -3.47873e-014 -1.04958e-013
rhumerus 6.59572 -47.0099 -55.3123
rradius 128.544
rwrist -5.69982
rhand -61.0092 -56.7189
rfingers 7.12502
rthumb -33.1121 -83.6954
lclavicle -3.47873e-014 -1.04958e-013
lhumerus -54.9256 -18.7503 94.6905
lradius 50.4779
lwrist -6.46757
lhand -27.983 31.143
lfingers 7.12502
lthumb -1.36949 -298.882
rfemur 7.98279 18.6453 32.9697
rtibia -0.820882
rfoot -23.5671 -18.4096
rtoes -14.7519
lfemur -27.2442 -9.8795 -18.4006
ltibia 29.7411
lfoot -24.7555 -10.6075
ltoes -10.8789
389
root -12.8184 15.9317 3.41515 362.621 -114.771 -353.729
lowerback 6.51543 1.74409 1.94728
upperback -11.4433 2.61986 4.29722
thorax -16.6562 1.09324 3.3323
lowerneck -15.4168 5.95185 11.082
upperneck 30.2362 7.03165 -7.46423
head 13.4631 3.09354 -3.77512
rclavicle -2.78299e-015 -3.97569e-014
rhumerus 11.2937 -49.0219 -57.8589
rradius 129.534
rwrist -6.28072
rhand -60.7023 -58.7502
rfingers 7.12502
rthumb -32.8202 -85.7882
lclavicle -2.78299e-015 -3.97569e-014
lhumerus -54.7772 -19.1988 94.6252
lradius 49.0217
lwrist -7.35571
lhand -27.2955 30.8205
lfingers 7.12502
lthumb -0.705499 -299.201
rfemur 8.80587 18.1284 33.331
rtibia -1.16424
rfoot -24.3962 -18.8871
rtoes -13.1615
lfemur -27.0157 -10.8435 -18.5063
ltibia 29.631
lfoot -24.0267 -10.5035
ltoes -9.78176
390
root -12.8854 15.9361 3.39934 361.769 -113.193 -353.09
lowerback 6.4021 1.89542 1.70168
upperback -11.5912 2.79033 4.28013
thorax -16.7917 1.20331 3.42225
lowerneck -15.6486 5.1781 10.1504
upperneck 30.4692 6.03439 -7.10584
head 13.4339 2.5881 -3.64668
rclavicle -1.51076e-014 -5.40694e-014
rhumerus 16.0031 -49.0589 -60.8938
rradius 130.501
rwrist -7.90102
rhand -61.0583 -61.1337
rfingers 7.12502
rthumb -33.1587 -88.1002
lclavicle -1.51076e-014 -5.40694e-014
lhumerus -54.2655 -19.6057 94.3789
lradius 47.7919
lwrist -8.29241
lhand -26.9391 30.1544
lfingers 7.12502
lthumb -0.361222 -299.866
rfemur 9.70024 17.5008 33.7138
rtibia -1.6449
rfoot -25.3847 -19.4214
rtoes -10.811
lfemur -26.799 -11.8471 -18.6367
ltibia 29.5001
lfoot -23.1614 -10.6276
ltoes -9.83432
